Jump_normalized_Motion_pl07
version=1
nRows=25
nColumns=43
inDegrees=yes
endheader
time		pelvis_tilt		pelvis_list		pelvis_rotation		pelvis_tx		pelvis_ty		pelvis_tz		hip_flexion_r		hip_adduction_r		hip_rotation_r		knee_angle_r		ankle_angle_r		subtalar_angle_r		mtp_angle_r		hip_flexion_l		hip_adduction_l		hip_rotation_l		knee_angle_l		ankle_angle_l		subtalar_angle_l		mtp_angle_l		lumbar_extension		lumbar_bending		lumbar_rotation		neck_flexion		neck_lateral_bending		neck_rotation		arm_flex_r		arm_add_r		arm_rot_r		elbow_flex_r		pro_sup_r		wrist_flex_r		wrist_dev_r		hand_finger_flex_r		arm_flex_l		arm_add_l		arm_rot_l		elbow_flex_l		pro_sup_l		wrist_flex_l		wrist_dev_l		hand_finger_flex_l		
0.002500		1.407035		-16.146508		90.568135		0.080403		1.756235		1.822591		85.685894		-1.805089		2.629271		-148.442091		24.817566		5.850658		12.233120		85.828129		-8.225245		18.301083		-147.293951		21.071083		27.954771		30.007122		-46.981292		-1.816127		3.916704		42.259939		0.841571		-6.951113		77.212020		-27.079608		6.555378		76.026105		98.098422		-3.623149		-11.687353		-1.287848		85.735978		-15.991322		20.235729		51.442766		109.526890		-16.385181		-5.808896		9.577232		
0.004141		1.393258		-16.181864		90.517054		0.080251		1.756763		1.820876		85.422844		-1.775216		2.589045		-148.348742		24.674674		5.511399		12.525545		85.535833		-8.234897		18.076874		-147.208295		20.825273		27.345659		31.612614		-46.915140		-1.837750		3.968987		42.278967		0.837219		-7.035833		77.867610		-26.937715		6.470383		75.964086		98.468841		-3.554637		-11.609817		-0.458491		86.549733		-15.956673		21.042289		50.859928		108.221333		-16.975297		-6.651331		10.640635		
0.005783		1.394899		-16.321482		90.470590		0.080059		1.757197		1.819199		85.266210		-1.770817		2.570443		-148.244024		24.627125		5.346655		12.692301		85.362529		-8.244569		17.933766		-147.119762		20.671104		27.064777		32.485651		-46.748524		-1.841323		4.007804		42.352953		0.863897		-7.074631		78.541304		-26.840877		6.522414		75.903358		98.692002		-3.506256		-11.543349		-0.008002		87.188004		-15.885110		21.462070		50.555592		107.525132		-17.312301		-7.050624		11.213147		
0.007424		1.413451		-16.575450		90.429188		0.079823		1.757526		1.817562		85.226290		-1.794355		2.575557		-148.126836		24.684145		5.373312		12.721226		85.319730		-8.254262		17.879607		-147.028072		20.617445		27.143892		32.555351		-46.471723		-1.825098		4.031853		42.487217		0.924608		-7.063066		79.234853		-26.793453		6.724733		75.844046		98.753654		-3.479954		-11.489022		0.026953		87.633812		-15.773061		21.457641		50.556711		107.497257		-17.371700		-6.963889		11.247265		
0.009066		1.459995		-16.772719		90.387077		0.079626		1.757900		1.815863		85.103189		-1.768864		2.551180		-148.011207		24.732257		5.404630		12.755003		85.227248		-8.284071		17.859900		-146.945576		20.553503		27.168483		32.626044		-46.248030		-1.778091		4.082627		42.578609		0.906037		-7.024414		79.943535		-26.709658		6.931984		75.774070		98.819361		-3.463241		-11.437572		0.061260		88.117040		-15.701230		21.507518		50.514597		107.462696		-17.388303		-6.888574		11.287801		
0.010707		1.517063		-16.917688		90.352600		0.079413		1.758309		1.814126		84.916107		-1.743598		2.516726		-147.897226		24.800452		5.449401		12.820635		85.086158		-8.313657		17.850714		-146.873516		20.452614		27.164392		32.759692		-46.072569		-1.703975		4.132630		42.595967		0.827512		-6.941486		80.704768		-26.644041		7.232991		75.678024		98.910902		-3.465779		-11.388747		0.124073		88.614480		-15.688951		21.644098		50.476400		107.362732		-17.402683		-6.819016		11.361620		
0.012348		1.586245		-16.997170		90.328258		0.079179		1.758762		1.812344		84.649796		-1.721763		2.470841		-147.785323		24.895757		5.511653		12.928051		84.884013		-8.341662		17.853227		-146.814657		20.303559		27.125883		32.976467		-45.957445		-1.596004		4.179906		42.518234		0.674831		-6.801782		81.534474		-26.604769		7.657575		75.548210		99.036320		-3.493142		-11.343205		0.224597		89.128306		-15.752794		21.891779		50.446140		107.176771		-17.416860		-6.756336		11.479008		
0.013990		1.623893		-17.202453		90.290452		0.078965		1.759188		1.810606		84.537389		-1.711434		2.451359		-147.656273		24.922760		5.529637		12.970222		84.801907		-8.368793		17.807919		-146.724575		20.233325		27.102076		33.055703		-45.724378		-1.553841		4.231521		42.639009		0.677635		-6.779093		82.200574		-26.433938		7.753842		75.456116		99.070044		-3.528138		-11.314450		0.253974		89.603234		-15.659417		21.926706		50.370584		107.077093		-17.426246		-6.715313		11.505368		
0.015631		1.659563		-17.384955		90.261771		0.078722		1.759608		1.808833		84.389437		-1.716278		2.442891		-147.531529		24.940004		5.574772		13.229557		84.697655		-8.381737		17.731046		-146.635052		20.079195		26.943731		33.570102		-45.507374		-1.493362		4.248653		42.696958		0.652442		-6.702918		82.915631		-26.254497		7.972735		75.301622		99.094311		-3.763908		-11.365643		0.526455		90.119217		-15.696362		22.230768		50.291149		106.406781		-17.562514		-6.762672		11.618522		
0.017273		1.697198		-17.510539		90.249880		0.078427		1.760022		1.806999		84.159571		-1.743525		2.447750		-147.416467		24.952747		5.670555		13.846971		84.538440		-8.372123		17.611447		-146.551504		19.778003		26.567734		34.803141		-45.335258		-1.392871		4.209909		42.622087		0.557153		-6.522124		83.735639		-26.082687		8.441251		75.041151		99.118369		-4.319673		-11.542020		1.199476		90.707216		-15.967401		23.000065		50.212877		104.809417		-17.902576		-6.947919		11.885355		
0.018914		1.755228		-17.705928		90.220771		0.078219		1.760453		1.805191		84.008614		-1.717264		2.410716		-147.279785		24.982060		5.675460		13.955753		84.449893		-8.399325		17.583310		-146.462818		19.647412		26.521215		34.995930		-45.105856		-1.337348		4.292281		42.700901		0.543062		-6.498445		84.394800		-25.942646		8.549874		74.948667		99.136214		-4.368365		-11.511642		1.336389		91.198992		-15.876566		23.120836		50.100993		104.600944		-17.938642		-6.911961		11.931201		
0.020556		1.828583		-17.884687		90.203505		0.078029		1.760902		1.803374		83.829996		-1.683326		2.346510		-147.141259		25.032817		5.659474		13.998509		84.356044		-8.425764		17.588222		-146.377347		19.505871		26.505298		35.038032		-44.891151		-1.267971		4.392907		42.749388		0.518148		-6.484883		85.052820		-25.833380		8.657918		74.872634		99.163046		-4.311876		-11.436473		1.419656		91.690277		-15.743471		23.168844		49.963218		104.597266		-17.902545		-6.833785		11.952302		
0.022197		1.925487		-18.009015		90.214798		0.077845		1.761380		1.801532		83.572523		-1.651190		2.242352		-147.005919		25.120282		5.631201		14.071986		84.229631		-8.439143		17.628998		-146.299774		19.289340		26.445697		35.112378		-44.723167		-1.157391		4.491166		42.690323		0.446572		-6.441743		85.759133		-25.774285		8.877882		74.775985		99.209397		-4.209087		-11.338704		1.566471		92.210827		-15.641451		23.278349		49.785392		104.557589		-17.820896		-6.742575		11.994453		
0.023838		2.000699		-18.199562		90.212266		0.077679		1.761845		1.799714		83.405754		-1.644041		2.161174		-146.860714		25.159653		5.623061		14.113210		84.149924		-8.458090		17.627399		-146.205819		19.165464		26.407946		35.156176		-44.493777		-1.083766		4.582298		42.745526		0.444209		-6.425537		86.399263		-25.627020		8.954422		74.656359		99.228587		-4.181981		-11.268061		1.633196		92.670823		-15.506616		23.304530		49.663395		104.501719		-17.776335		-6.674091		12.008756		
0.025480		2.081195		-18.397204		90.212001		0.077533		1.762313		1.797904		83.246068		-1.632470		2.073442		-146.711791		25.196946		5.616919		14.150825		84.080302		-8.477816		17.633540		-146.108845		19.045488		26.366582		35.195246		-44.256782		-1.007543		4.671657		42.805419		0.450634		-6.408249		87.033072		-25.467272		9.025641		74.523221		99.246377		-4.158961		-11.197951		1.690438		93.128186		-15.371757		23.320051		49.535356		104.432774		-17.730337		-6.599895		12.019460		
0.027121		2.186369		-18.575727		90.224798		0.077426		1.762792		1.796100		83.053807		-1.596500		1.957246		-146.559273		25.255568		5.604580		14.197383		84.009495		-8.496380		17.681646		-146.013542		18.884163		26.304492		35.239615		-44.035038		-0.904768		4.760629		42.814031		0.440396		-6.373574		87.687853		-25.325635		9.162593		74.369969		99.275670		-4.104349		-11.114258		1.768628		93.612371		-15.254829		23.355440		49.362083		104.341051		-17.660527		-6.499412		12.036715		
0.028763		2.298655		-18.743044		90.236692		0.077366		1.763273		1.794269		82.840904		-1.552495		1.829420		-146.408228		25.313004		5.585565		14.247589		83.928691		-8.520044		17.748030		-145.916546		18.706111		26.243334		35.291175		-43.820330		-0.800546		4.859842		42.791548		0.420670		-6.329387		88.327645		-25.192390		9.308591		74.219795		99.301993		-4.043688		-11.032840		1.854471		94.089005		-15.146150		23.400980		49.195734		104.226771		-17.584706		-6.391857		12.055631		
0.030404		2.412460		-18.907514		90.248512		0.077336		1.763755		1.792426		82.622973		-1.500380		1.696905		-146.257643		25.368080		5.563761		14.298934		83.846718		-8.547320		17.820642		-145.817738		18.521948		26.186948		35.346397		-43.606510		-0.698067		4.959162		42.759872		0.398653		-6.282192		88.958657		-25.060595		9.457498		74.068235		99.325871		-3.982005		-10.952525		1.942408		94.560915		-15.039536		23.449311		49.030565		104.102104		-17.509060		-6.279795		12.074284		
0.032045		2.524384		-19.073558		90.260938		0.077351		1.764237		1.790570		82.408611		-1.430809		1.560715		-146.107117		25.417016		5.539554		14.350412		83.770352		-8.580970		17.895536		-145.714938		18.334437		26.144323		35.406226		-43.388944		-0.602257		5.049405		42.728612		0.378335		-6.234526		89.576556		-24.925533		9.607002		73.909601		99.344987		-3.922750		-10.873495		2.029723		95.025291		-14.931669		23.496867		48.862647		103.966349		-17.439474		-6.160430		12.090601		
0.033687		2.654281		-19.186868		90.282311		0.077392		1.764735		1.788653		82.136326		-1.364478		1.376085		-145.950719		25.362829		5.327904		14.866416		83.647888		-8.611895		18.042301		-145.602857		17.978125		26.202082		36.446131		-43.217202		-0.471507		5.129478		42.596037		0.304060		-6.130141		90.236038		-24.795867		9.903511		73.695630		99.142513		-4.160744		-10.852548		2.789870		95.565456		-15.057726		24.060021		48.758174		102.625975		-17.470851		-6.029681		12.088772		
0.035328		2.777025		-19.302341		90.294908		0.077443		1.765234		1.786711		81.868277		-1.295775		1.202276		-145.791691		25.294718		5.108640		15.427235		83.520763		-8.645935		18.188523		-145.485914		17.608287		26.275560		37.582850		-43.041447		-0.349496		5.204955		42.468052		0.230874		-6.025212		90.880976		-24.663675		10.206132		73.483993		98.919824		-4.442264		-10.840920		3.611394		96.104048		-15.206272		24.665538		48.655940		101.191474		-17.533478		-5.904738		12.079508		
0.036970		2.843620		-19.507252		90.258691		0.077500		1.765709		1.784757		81.705896		-1.212622		1.145960		-145.631133		25.328888		5.146070		15.455700		83.445617		-8.696610		18.222478		-145.363741		17.442934		26.258130		37.605433		-42.779436		-0.315965		5.277634		42.513627		0.244708		-6.004997		91.404030		-24.513116		10.307994		73.366460		98.955737		-4.442532		-10.777593		3.647710		96.520247		-15.086416		24.650657		48.465465		101.225837		-17.566437		-5.820464		12.068300		
0.038611		2.921761		-19.649918		90.236900		0.077540		1.766208		1.782721		81.461077		-1.133797		1.074090		-145.478441		25.384619		5.186390		15.517291		83.328520		-8.731248		18.291977		-145.247005		17.145114		26.266529		37.674258		-42.565001		-0.256702		5.370221		42.413550		0.209571		-5.944162		91.956722		-24.438185		10.522154		73.230830		98.999367		-4.434765		-10.713916		3.742757		96.939676		-14.973452		24.688043		48.254779		101.265630		-17.587700		-5.712054		12.077427		
0.040253		2.996465		-19.777729		90.217477		0.077573		1.766716		1.780635		81.194170		-1.057179		1.003692		-145.328663		25.440702		5.224028		15.587075		83.199509		-8.760978		18.361012		-145.128380		16.817459		26.289442		37.756932		-42.359928		-0.195585		5.462001		42.275671		0.163992		-5.875855		92.506079		-24.381246		10.761880		73.093323		99.040570		-4.428448		-10.653975		3.852021		97.348800		-14.866860		24.734259		48.048411		101.300076		-17.603131		-5.600735		12.093230		
0.041894		3.021959		-19.987224		90.173214		0.077616		1.767209		1.778501		81.022170		-0.981335		0.982229		-145.174267		25.442125		5.239317		15.614970		83.115093		-8.805818		18.334189		-144.985094		16.673436		26.324393		37.794385		-42.081461		-0.191825		5.497081		42.312219		0.189543		-5.873083		92.959296		-24.224732		10.847444		72.992994		99.048168		-4.451205		-10.615507		3.885307		97.692773		-14.777220		24.691842		47.918839		101.290863		-17.617186		-5.536767		12.092373		
